HIERARCHY
ROOT Root
{
  OFFSET 0 0 0
  CHANNELS 6 Xposition Yposition Zposition Zrotation Yrotation Xrotation
  JOINT Hips
  {
    OFFSET 0 100 0
    CHANNELS 6 Xposition Yposition Zposition Zrotation Yrotation Xrotation
    JOINT Spine1
    {
      OFFSET 5 0 0
      CHANNELS 3 Zrotation Yrotation Xrotation
      JOINT Spine2
      {
        OFFSET 7 0 0
        CHANNELS 3 Zrotation Yrotation Xrotation
        JOINT Chest
        {
          OFFSET 8 0 0
          CHANNELS 3 Zrotation Yrotation Xrotation
          JOINT Neck1
          {
            OFFSET 26 -1 0
            CHANNELS 3 Zrotation Yrotation Xrotation
            JOINT Neck2
            {
              OFFSET 8 0 0
              CHANNELS 3 Zrotation Yrotation Xrotation
              JOINT Head
              {
                OFFSET 6 0 0
                CHANNELS 3 Zrotation Yrotation Xrotation
                JOINT HeadEnd
                {
                  OFFSET 4 0 0
                  CHANNELS 3 Zrotation Yrotation Xrotation
                }
                JOINT Jaw
                {
                  OFFSET 4 0 0
                  CHANNELS 3 Zrotation Yrotation Xrotation
                }
                JOINT LeftEye
                {
                  OFFSET 4 0 0
                  CHANNELS 3 Zrotation Yrotation Xrotation
                }
                JOINT RightEye
                {
                  OFFSET -4 0 0
                  CHANNELS 3 Zrotation Yrotation Xrotation
                }
              }
            }
          }
          JOINT LeftShoulder
          {
            OFFSET 23 5 2
            CHANNELS 3 Zrotation Yrotation Xrotation
            JOINT LeftArm
            {
              OFFSET 16 0 0
              CHANNELS 3 Zrotation Yrotation Xrotation
              JOINT LeftForeArm
              {
                OFFSET 29 0 0
                CHANNELS 3 Zrotation Yrotation Xrotation
                JOINT LeftHand
                {
                  OFFSET 27 0 0
                  CHANNELS 3 Zrotation Yrotation Xrotation
                  JOINT LeftHandThumb1
                  {
                    OFFSET 4 0 0
                    CHANNELS 3 Zrotation Yrotation Xrotation
                    JOINT LeftHandThumb2
                    {
                      OFFSET 4 0 0
                      CHANNELS 3 Zrotation Yrotation Xrotation
                      JOINT LeftHandThumb3
                      {
                        OFFSET 4 0 0
                        CHANNELS 3 Zrotation Yrotation Xrotation
                        JOINT LeftHandThumbEnd
                        {
                          OFFSET 4 0 0
                          CHANNELS 3 Zrotation Yrotation Xrotation
                        }
                      }
                    }
                  }
                  JOINT LeftHandIndex1
                  {
                    OFFSET 4 0 0
                    CHANNELS 3 Zrotation Yrotation Xrotation
                    JOINT LeftHandIndex2
                    {
                      OFFSET 4 0 0
                      CHANNELS 3 Zrotation Yrotation Xrotation
                      JOINT LeftHandIndex3
                      {
                        OFFSET 4 0 0
                        CHANNELS 3 Zrotation Yrotation Xrotation
                        JOINT LeftHandIndex4
                        {
                          OFFSET 4 0 0
                          CHANNELS 3 Zrotation Yrotation Xrotation
                          JOINT LeftHandIndexEnd
                          {
                            OFFSET 4 0 0
                            CHANNELS 3 Zrotation Yrotation Xrotation
                          }
                        }
                      }
                    }
                  }
                  JOINT LeftHandMiddle1
                  {
                    OFFSET 4 0 0
                    CHANNELS 3 Zrotation Yrotation Xrotation
                    JOINT LeftHandMiddle2
                    {
                      OFFSET 4 0 0
                      CHANNELS 3 Zrotation Yrotation Xrotation
                      JOINT LeftHandMiddle3
                      {
                        OFFSET 4 0 0
                        CHANNELS 3 Zrotation Yrotation Xrotation
                        JOINT LeftHandMiddle4
                        {
                          OFFSET 4 0 0
                          CHANNELS 3 Zrotation Yrotation Xrotation
                          JOINT LeftHandMiddleEnd
                          {
                            OFFSET 4 0 0
                            CHANNELS 3 Zrotation Yrotation Xrotation
                          }
                        }
                      }
                    }
                  }
                  JOINT LeftHandRing1
                  {
                    OFFSET 4 0 0
                    CHANNELS 3 Zrotation Yrotation Xrotation
                    JOINT LeftHandRing2
                    {
                      OFFSET 4 0 0
                      CHANNELS 3 Zrotation Yrotation Xrotation
                      JOINT LeftHandRing3
                      {
                        OFFSET 4 0 0
                        CHANNELS 3 Zrotation Yrotation Xrotation
                        JOINT LeftHandRing4
                        {
                          OFFSET 4 0 0
                          CHANNELS 3 Zrotation Yrotation Xrotation
                          JOINT LeftHandRingEnd
                          {
                            OFFSET 4 0 0
                            CHANNELS 3 Zrotation Yrotation Xrotation
                          }
                        }
                      }
                    }
                  }
                  JOINT LeftHandPinky1
                  {
                    OFFSET 4 0 0
                    CHANNELS 3 Zrotation Yrotation Xrotation
                    JOINT LeftHandPinky2
                    {
                      OFFSET 4 0 0
                      CHANNELS 3 Zrotation Yrotation Xrotation
                      JOINT LeftHandPinky3
                      {
                        OFFSET 4 0 0
                        CHANNELS 3 Zrotation Yrotation Xrotation
                        JOINT LeftHandPinky4
                        {
                          OFFSET 4 0 0
                          CHANNELS 3 Zrotation Yrotation Xrotation
                          JOINT LeftHandPinkyEnd
                          {
                            OFFSET 4 0 0
                            CHANNELS 3 Zrotation Yrotation Xrotation
                          }
                        }
                      }
                    }
                  }
                }
              }
            }
          }
          JOINT RightShoulder
          {
            OFFSET 23 5 -2
            CHANNELS 3 Zrotation Yrotation Xrotation
            JOINT RightArm
            {
              OFFSET -16 0 0
              CHANNELS 3 Zrotation Yrotation Xrotation
              JOINT RightForeArm
              {
                OFFSET -29 0 0
                CHANNELS 3 Zrotation Yrotation Xrotation
                JOINT RightHand
                {
                  OFFSET -27 0 0
                  CHANNELS 3 Zrotation Yrotation Xrotation
                  JOINT RightHandThumb1
                  {
                    OFFSET -4 0 0
                    CHANNELS 3 Zrotation Yrotation Xrotation
                    JOINT RightHandThumb2
                    {
                      OFFSET -4 0 0
                      CHANNELS 3 Zrotation Yrotation Xrotation
                      JOINT RightHandThumb3
                      {
                        OFFSET -4 0 0
                        CHANNELS 3 Zrotation Yrotation Xrotation
                        JOINT RightHandThumbEnd
                        {
                          OFFSET -4 0 0
                          CHANNELS 3 Zrotation Yrotation Xrotation
                        }
                      }
                    }
                  }
                  JOINT RightHandIndex1
                  {
                    OFFSET -4 0 0
                    CHANNELS 3 Zrotation Yrotation Xrotation
                    JOINT RightHandIndex2
                    {
                      OFFSET -4 0 0
                      CHANNELS 3 Zrotation Yrotation Xrotation
                      JOINT RightHandIndex3
                      {
                        OFFSET -4 0 0
                        CHANNELS 3 Zrotation Yrotation Xrotation
                        JOINT RightHandIndex4
                        {
                          OFFSET -4 0 0
                          CHANNELS 3 Zrotation Yrotation Xrotation
                          JOINT RightHandIndexEnd
                          {
                            OFFSET -4 0 0
                            CHANNELS 3 Zrotation Yrotation Xrotation
                          }
                        }
                      }
                    }
                  }
                  JOINT RightHandMiddle1
                  {
                    OFFSET -4 0 0
                    CHANNELS 3 Zrotation Yrotation Xrotation
                    JOINT RightHandMiddle2
                    {
                      OFFSET -4 0 0
                      CHANNELS 3 Zrotation Yrotation Xrotation
                      JOINT RightHandMiddle3
                      {
                        OFFSET -4 0 0
                        CHANNELS 3 Zrotation Yrotation Xrotation
                        JOINT RightHandMiddle4
                        {
                          OFFSET -4 0 0
                          CHANNELS 3 Zrotation Yrotation Xrotation
                          JOINT RightHandMiddleEnd
                          {
                            OFFSET -4 0 0
                            CHANNELS 3 Zrotation Yrotation Xrotation
                          }
                        }
                      }
                    }
                  }
                  JOINT RightHandRing1
                  {
                    OFFSET -4 0 0
                    CHANNELS 3 Zrotation Yrotation Xrotation
                    JOINT RightHandRing2
                    {
                      OFFSET -4 0 0
                      CHANNELS 3 Zrotation Yrotation Xrotation
                      JOINT RightHandRing3
                      {
                        OFFSET -4 0 0
                        CHANNELS 3 Zrotation Yrotation Xrotation
                        JOINT RightHandRing4
                        {
                          OFFSET -4 0 0
                          CHANNELS 3 Zrotation Yrotation Xrotation
                          JOINT RightHandRingEnd
                          {
                            OFFSET -4 0 0
                            CHANNELS 3 Zrotation Yrotation Xrotation
                          }
                        }
                      }
                    }
                  }
                  JOINT RightHandPinky1
                  {
                    OFFSET -4 0 0
                    CHANNELS 3 Zrotation Yrotation Xrotation
                    JOINT RightHandPinky2
                    {
                      OFFSET -4 0 0
                      CHANNELS 3 Zrotation Yrotation Xrotation
                      JOINT RightHandPinky3
                      {
                        OFFSET -4 0 0
                        CHANNELS 3 Zrotation Yrotation Xrotation
                        JOINT RightHandPinky4
                        {
                          OFFSET -4 0 0
                          CHANNELS 3 Zrotation Yrotation Xrotation
                          JOINT RightHandPinkyEnd
                          {
                            OFFSET -4 0 0
                            CHANNELS 3 Zrotation Yrotation Xrotation
                          }
                        }
                      }
                    }
                  }
                }
              }
            }
          }
        }
      }
    }
    JOINT LeftLeg
    {
      OFFSET -8 3 10
      CHANNELS 3 Zrotation Yrotation Xrotation
      JOINT LeftShin
      {
        OFFSET -43 0 0
        CHANNELS 3 Zrotation Yrotation Xrotation
        JOINT LeftFoot
        {
          OFFSET -42 0 0
          CHANNELS 3 Zrotation Yrotation Xrotation
          JOINT LeftToeBase
          {
            OFFSET -14 0 0
            CHANNELS 3 Zrotation Yrotation Xrotation
            JOINT LeftToeEnd
            {
              OFFSET 4 0 0
              CHANNELS 3 Zrotation Yrotation Xrotation
            }
          }
        }
      }
    }
    JOINT RightLeg
    {
      OFFSET -8 3 -10
      CHANNELS 3 Zrotation Yrotation Xrotation
      JOINT RightShin
      {
        OFFSET -43 0 0
        CHANNELS 3 Zrotation Yrotation Xrotation
        JOINT RightFoot
        {
          OFFSET -42 0 0
          CHANNELS 3 Zrotation Yrotation Xrotation
          JOINT RightToeBase
          {
            OFFSET -14 0 0
            CHANNELS 3 Zrotation Yrotation Xrotation
            JOINT RightToeEnd
            {
              OFFSET -4 0 0
              CHANNELS 3 Zrotation Yrotation Xrotation
            }
          }
        }
      }
    }
  }
}
MOTION
Frames: 14
Frame Time: 0.03333333333333333
0 0 0 0 0 0 0 100 0 90 0 0 0 0 0 0 0 0 2.2026 0 0 -2.2026 0 0 0 0 0 0 0 0 0 0 0 0 0 0 0 0 0 0 0 0 -2.2026 -81.4692 1.8969 5.8052 -71.8695 -4.2094 0 0 0 0 0 0 0 0 0 0 0 0 0 0 0 0 0 0 0 0 0 0 0 0 0 0 0 0 0 0 0 0 0 0 0 0 0 0 0 0 0 0 0 0 0 0 0 0 0 0 0 0 0 0 0 0 0 0 0 0 0 0 0 0 0 0 0 0 0 0 0 0 0 0 0 0 0 0 177.7974 -81.4692 -177.4425 -7.804 71.7912 -5.6524 0 0 0 0 0 0 0 0 0 0 0 0 0 0 0 0 0 0 0 0 0 0 0 0 0 0 0 0 0 0 0 0 0 0 0 0 0 0 0 0 0 0 0 0 0 0 0 0 0 0 0 0 0 0 0 0 0 0 0 0 0 0 0 0 0 0 0 0 0 0 0 0 0 0 0 0 0 0 0 0 0 0 0 0 78.6901 0 0 180 0 180 0 0 0 0 0 0 0 0 0 78.6901 0 0 0 0 0 0 0 0
0 0 0 0 0 0 2 101.1147 0 90 0 0 -2.1432 -2.3275 0.0435 4.5332 5.1156 0.2026 -2.082 -6.0457 -0.1227 2.33 3.0441 0.0619 -2.8602 2.3547 -0.0588 -0.0802 -3.572 0.0025 0 0 0 0 0 0 0 0 0 0 0 0 -14.2549 -77.8656 11.5363 8.2911 -71.9223 -6.0202 -0.7322 0.1021 -0.0007 0 0 0 0 0 0 0 0 0 0 0 0 0 0 0 0 0 0 0 0 0 0 0 0 0 0 0 0 0 0 0 0 0 0 0 0 0 0 0 0 0 0 0 0 0 0 0 0 0 0 0 0 0 0 0 0 0 0 0 0 0 0 0 0 0 0 0 0 0 0 0 0 0 0 0 153.2533 -84.1116 -150.4737 -0.5208 71.7366 -0.3766 0.7527 -0.1035 -0.0007 0 0 0 0 0 0 0 0 0 0 0 0 0 0 0 0 0 0 0 0 0 0 0 0 0 0 0 0 0 0 0 0 0 0 0 0 0 0 0 0 0 0 0 0 0 0 0 0 0 0 0 0 0 0 0 0 0 0 0 0 0 0 0 0 0 0 0 0 0 0 0 0 0 0 0 5.3606 0 0 0.3756 0 0 72.9538 0 0 180 0 180 0 0 0 -5.3606 0 0 34.0019 0 0 50.0488 0 0 0 0 0 0 0 0
0 0 0 0 0 0 4 101.4918 0 90 0 0 -4.1873 -4.2388 0.155 8.8953 9.2914 0.7243 -6.1987 -10.999 0.1727 6.6621 5.0782 0.2958 -6.063 5.0296 -0.2665 -0.3383 -6.9765 0.0206 0 0 0 0 0 0 0 0 0 0 0 0 -19.0406 -74.6063 14.5628 11.7213 -72.0638 -8.54 -2.836 0.5282 -0.0131 0 0 0 0 0 0 0 0 0 0 0 0 0 0 0 0 0 0 0 0 0 0 0 0 0 0 0 0 0 0 0 0 0 0 0 0 0 0 0 0 0 0 0 0 0 0 0 0 0 0 0 0 0 0 0 0 0 0 0 0 0 0 0 0 0 0 0 0 0 0 0 0 0 0 0 120.3508 -84.6027 -115.5788 7.1349 70.9789 5.0906 2.9468 -0.61 -0.0157 0 0 0 0 0 0 0 0 0 0 0 0 0 0 0 0 0 0 0 0 0 0 0 0 0 0 0 0 0 0 0 0 0 0 0 0 0 0 0 0 0 0 0 0 0 0 0 0 0 0 0 0 0 0 0 0 0 0 0 0 0 0 0 0 0 0 0 0 0 0 0 0 0 0 0 10.4869 0 0 1.486 0 0 66.7171 0 0 180 0 180 0 0 0 -10.4869 0 0 32.8914 0 0 56.2856 0 0 0 0 0 0 0 0
0 0 0 0 0 0 6 100.8817 0 90 0 0 -6.0395 -5.4028 0.2852 12.8788 11.7983 1.3363 -9.9688 -13.995 0.6834 10.5711 5.6841 0.5263 -9.4687 7.8957 -0.6549 -0.7767 -10.0503 0.0683 0 0 0 0 0 0 0 0 0 0 0 0 -20.405 -72.5395 15.0456 15.2864 -72.0195 -11.1413 -6.1951 1.3205 -0.0715 0 0 0 0 0 0 0 0 0 0 0 0 0 0 0 0 0 0 0 0 0 0 0 0 0 0 0 0 0 0 0 0 0 0 0 0 0 0 0 0 0 0 0 0 0 0 0 0 0 0 0 0 0 0 0 0 0 0 0 0 0 0 0 0 0 0 0 0 0 0 0 0 0 0 0 102.4724 -83.9377 -96.4846 14.6232 69.6534 10.202 6.3468 -1.7106 -0.0948 0 0 0 0 0 0 0 0 0 0 0 0 0 0 0 0 0 0 0 0 0 0 0 0 0 0 0 0 0 0 0 0 0 0 0 0 0 0 0 0 0 0 0 0 0 0 0 0 0 0 0 0 0 0 0 0 0 0 0 0 0 0 0 0 0 0 0 0 0 0 0 0 0 0 0 15.1549 0 0 3.2828 0 0 60.2524 0 0 180 0 180 0 0 0 -15.1549 0 0 31.0947 0 0 62.7503 0 0 0 0 0 0 0 0
0 0 0 0 0 0 8 99.6881 0 90 0 0 -7.619 -5.6297 0.3752 16.2564 12.2441 1.7553 -13.1801 -14.5591 1.1231 13.8625 4.6849 0.5698 -12.9554 10.7917 -1.2289 -1.3563 -12.6448 0.1503 0 0 0 0 0 0 0 0 0 0 0 0 -19.6884 -72.1018 14.3977 18.2071 -71.5628 -13.1756 -10.7654 2.3401 -0.2205 0 0 0 0 0 0 0 0 0 0 0 0 0 0 0 0 0 0 0 0 0 0 0 0 0 0 0 0 0 0 0 0 0 0 0 0 0 0 0 0 0 0 0 0 0 0 0 0 0 0 0 0 0 0 0 0 0 0 0 0 0 0 0 0 0 0 0 0 0 0 0 0 0 0 0 100.6175 -83.762 -94.424 21.8704 67.9024 14.8229 10.5919 -3.4073 -0.3159 0 0 0 0 0 0 0 0 0 0 0 0 0 0 0 0 0 0 0 0 0 0 0 0 0 0 0 0 0 0 0 0 0 0 0 0 0 0 0 0 0 0 0 0 0 0 0 0 0 0 0 0 0 0 0 0 0 0 0 0 0 0 0 0 0 0 0 0 0 0 0 0 0 0 0 19.1606 0 0 5.6872 0 0 53.8423 0 0 180 0 180 0 0 0 -19.1606 0 0 28.6902 0 0 69.1604 0 0 0 0 0 0 0 0
0 0 0 0 0 0 10 98.701 0 90 0 0 -8.8602 -4.8908 0.3791 18.8461 10.5995 1.764 -15.6505 -12.6364 1.2491 16.4103 2.1383 0.3084 -16.4157 13.5389 -1.9618 -2.0013 -14.6388 0.2571 0 0 0 0 0 0 0 0 0 0 0 0 -17.1068 -73.3826 12.7891 20.1611 -70.5962 -14.3476 -16.519 3.2766 -0.4758 0 0 0 0 0 0 0 0 0 0 0 0 0 0 0 0 0 0 0 0 0 0 0 0 0 0 0 0 0 0 0 0 0 0 0 0 0 0 0 0 0 0 0 0 0 0 0 0 0 0 0 0 0 0 0 0 0 0 0 0 0 0 0 0 0 0 0 0 0 0 0 0 0 0 0 112.9888 -84.3705 -107.7044 29.023 65.7544 18.9952 15.2901 -5.559 -0.7468 0 0 0 0 0 0 0 0 0 0 0 0 0 0 0 0 0 0 0 0 0 0 0 0 0 0 0 0 0 0 0 0 0 0 0 0 0 0 0 0 0 0 0 0 0 0 0 0 0 0 0 0 0 0 0 0 0 0 0 0 0 0 0 0 0 0 0 0 0 0 0 0 0 0 0 22.3288 0 0 8.5944 0 0 47.7669 0 0 180 0 180 0 0 0 -22.3288 0 0 25.7831 0 0 75.2358 0 0 0 0 0 0 0 0
0 0 0 0 0 0 12 98.5734 0 90 0 0 -9.7143 -3.3158 0.2818 20.5634 7.1679 1.3019 -17.2904 -8.5648 0.9689 18.1639 -1.6957 -0.2711 -19.7392 15.9675 -2.7956 -2.6208 -15.9479 0.3672 0 0 0 0 0 0 0 0 0 0 0 0 -11.9595 -76.1306 9.3789 21.3642 -69.1471 -14.8136 -23.2924 3.6831 -0.7594 0 0 0 0 0 0 0 0 0 0 0 0 0 0 0 0 0 0 0 0 0 0 0 0 0 0 0 0 0 0 0 0 0 0 0 0 0 0 0 0 0 0 0 0 0 0 0 0 0 0 0 0 0 0 0 0 0 0 0 0 0 0 0 0 0 0 0 0 0 0 0 0 0 0 0 143.2038 -84.685 -139.8959 36.0048 63.1433 22.5867 20.0805 -7.9872 -1.4164 0 0 0 0 0 0 0 0 0 0 0 0 0 0 0 0 0 0 0 0 0 0 0 0 0 0 0 0 0 0 0 0 0 0 0 0 0 0 0 0 0 0 0 0 0 0 0 0 0 0 0 0 0 0 0 0 0 0 0 0 0 0 0 0 0 0 0 0 0 0 0 0 0 0 0 24.5212 0 0 11.8771 0 0 42.2918 0 0 180 0 180 0 0 0 -24.5212 0 0 22.5003 0 0 80.7109 0 0 0 0 0 0 0 0
0 0 0 0 0 0 14 99.3899 0 90 0 0 -10.1492 -1.1724 0.1041 21.4091 2.5313 0.4786 -18.0976 -3.0287 0.3637 19.1183 -6.3861 -1.0765 -22.7936 17.9456 -3.6461 -3.1396 -16.5291 0.4561 0 0 0 0 0 0 0 0 0 0 0 0 -1.8158 -79.7072 1.5157 22.2633 -67.3469 -14.9372 -30.6459 3.1228 -0.8558 0 0 0 0 0 0 0 0 0 0 0 0 0 0 0 0 0 0 0 0 0 0 0 0 0 0 0 0 0 0 0 0 0 0 0 0 0 0 0 0 0 0 0 0 0 0 0 0 0 0 0 0 0 0 0 0 0 0 0 0 0 0 0 0 0 0 0 0 0 0 0 0 0 0 0 176.2289 -82.9979 -175.7378 42.3505 60.0724 25.2494 24.6774 -10.5334 -2.3103 0 0 0 0 0 0 0 0 0 0 0 0 0 0 0 0 0 0 0 0 0 0 0 0 0 0 0 0 0 0 0 0 0 0 0 0 0 0 0 0 0 0 0 0 0 0 0 0 0 0 0 0 0 0 0 0 0 0 0 0 0 0 0 0 0 0 0 0 0 0 0 0 0 0 0 25.6419 0 0 15.392 0 0 37.6562 0 0 180 0 180 0 0 0 -25.6419 0 0 18.9854 0 0 85.3465 0 0 0 0 0 0 0 0
0 0 0 0 0 0 16 100.6101 0 90 0 0 -10.1492 1.1724 -0.1041 21.4091 -2.5313 -0.4786 -18.0976 3.0287 -0.3637 19.2679 -11.3759 -1.9372 -25.4206 19.4 -4.4157 -3.5213 -16.3785 0.5069 0 0 0 0 0 0 0 0 0 0 0 0 19.4854 -82.9461 -17.2591 23.1376 -65.4116 -14.9768 -37.8933 1.4502 -0.4978 0 0 0 0 0 0 0 0 0 0 0 0 0 0 0 0 0 0 0 0 0 0 0 0 0 0 0 0 0 0 0 0 0 0 0 0 0 0 0 0 0 0 0 0 0 0 0 0 0 0 0 0 0 0 0 0 0 0 0 0 0 0 0 0 0 0 0 0 0 0 0 0 0 0 0 -165.92 -79.7428 163.18 47.3943 56.8213 26.7121 28.9238 -13.0235 -3.3724 0 0 0 0 0 0 0 0 0 0 0 0 0 0 0 0 0 0 0 0 0 0 0 0 0 0 0 0 0 0 0 0 0 0 0 0 0 0 0 0 0 0 0 0 0 0 0 0 0 0 0 0 0 0 0 0 0 0 0 0 0 0 0 0 0 0 0 0 0 0 0 0 0 0 0 25.6419 0 0 18.9854 0 0 34.0628 0 0 180 0 180 0 0 0 -25.6419 0 0 15.392 0 0 88.9399 0 0 0 0 0 0 0 0
0 0 0 0 0 0 18 101.4266 0 90 0 0 -9.7143 3.3158 -0.2818 20.5634 -7.1679 -1.3019 -17.2904 8.5648 -0.9689 18.5762 -16.0612 -2.6436 -27.4507 20.3177 -5.0119 -3.7747 -15.527 0.5148 0 0 0 0 0 0 0 0 0 0 0 0 54.709 -84.1771 -50.0903 23.8956 -63.6167 -14.9539 -44.3496 -0.962 0.3921 0 0 0 0 0 0 0 0 0 0 0 0 0 0 0 0 0 0 0 0 0 0 0 0 0 0 0 0 0 0 0 0 0 0 0 0 0 0 0 0 0 0 0 0 0 0 0 0 0 0 0 0 0 0 0 0 0 0 0 0 0 0 0 0 0 0 0 0 0 0 0 0 0 0 0 -157.9635 -76.3377 152.1745 50.5536 54.0287 27.0726 32.8418 -15.1871 -4.4999 0 0 0 0 0 0 0 0 0 0 0 0 0 0 0 0 0 0 0 0 0 0 0 0 0 0 0 0 0 0 0 0 0 0 0 0 0 0 0 0 0 0 0 0 0 0 0 0 0 0 0 0 0 0 0 0 0 0 0 0 0 0 0 0 0 0 0 0 0 0 0 0 0 0 0 24.5212 0 0 22.5003 0 0 31.6685 0 0 180 0 180 0 0 0 -24.5212 0 0 11.8771 0 0 91.3341 0 0 0 0 0 0 0 0
0 0 0 0 0 0 20 101.299 0 90 0 0 -8.8602 4.8908 -0.3791 18.8461 -10.5995 -1.764 -15.6505 12.6364 -1.2491 16.9832 -19.8887 -2.9989 -28.7346 20.7283 -5.3643 -3.9402 -14.0348 0.4852 0 0 0 0 0 0 0 0 0 0 0 0 80.838 -83.4175 -74.3981 24.1264 -62.2592 -14.7089 -49.5798 -3.2885 1.5191 0 0 0 0 0 0 0 0 0 0 0 0 0 0 0 0 0 0 0 0 0 0 0 0 0 0 0 0 0 0 0 0 0 0 0 0 0 0 0 0 0 0 0 0 0 0 0 0 0 0 0 0 0 0 0 0 0 0 0 0 0 0 0 0 0 0 0 0 0 0 0 0 0 0 0 -154.7676 -73.7408 146.7671 51.3949 52.5353 26.7196 36.6176 -16.6284 -5.5368 0 0 0 0 0 0 0 0 0 0 0 0 0 0 0 0 0 0 0 0 0 0 0 0 0 0 0 0 0 0 0 0 0 0 0 0 0 0 0 0 0 0 0 0 0 0 0 0 0 0 0 0 0 0 0 0 0 0 0 0 0 0 0 0 0 0 0 0 0 0 0 0 0 0 0 22.3288 0 0 25.7831 0 0 30.5781 0 0 180 0 180 0 0 0 -22.3288 0 0 8.5944 0 0 92.4245 0 0 0 0 0 0 0 0
0 0 0 0 0 0 22 100.3119 0 90 0 0 -7.619 5.6297 -0.3752 16.2564 -12.2441 -1.7553 -13.1801 14.5591 -1.1231 14.4539 -22.4316 -2.8808 -29.1738 20.6752 -5.4355 -4.0678 -11.9852 0.4272 0 0 0 0 0 0 0 0 0 0 0 0 89.2908 -82.71 -82.0071 23.29 -61.5801 -14.0024 -53.421 -4.6004 2.3157 0 0 0 0 0 0 0 0 0 0 0 0 0 0 0 0 0 0 0 0 0 0 0 0 0 0 0 0 0 0 0 0 0 0 0 0 0 0 0 0 0 0 0 0 0 0 0 0 0 0 0 0 0 0 0 0 0 0 0 0 0 0 0 0 0 0 0 0 0 0 0 0 0 0 0 -154.3411 -72.5095 145.497 49.4333 53.0261 25.8651 40.4763 -16.9036 -6.2714 0 0 0 0 0 0 0 0 0 0 0 0 0 0 0 0 0 0 0 0 0 0 0 0 0 0 0 0 0 0 0 0 0 0 0 0 0 0 0 0 0 0 0 0 0 0 0 0 0 0 0 0 0 0 0 0 0 0 0 0 0 0 0 0 0 0 0 0 0 0 0 0 0 0 0 19.1606 0 0 28.6902 0 0 30.8392 0 0 180 0 180 0 0 0 -19.1606 0 0 5.6872 0 0 92.1634 0 0 0 0 0 0 0 0
0 0 0 0 0 0 24 99.1183 0 90 0 0 -6.0395 5.4028 -0.2852 12.8788 -11.7983 -1.3363 -9.9688 13.995 -0.6834 11.0448 -23.4303 -2.2971 -28.7391 20.192 -5.2236 -4.1984 -9.4778 0.3482 0 0 0 0 0 0 0 0 0 0 0 0 84.9932 -83.0323 -78.0887 20.8974 -61.647 -12.5586 -55.8392 -4.262 2.2592 0 0 0 0 0 0 0 0 0 0 0 0 0 0 0 0 0 0 0 0 0 0 0 0 0 0 0 0 0 0 0 0 0 0 0 0 0 0 0 0 0 0 0 0 0 0 0 0 0 0 0 0 0 0 0 0 0 0 0 0 0 0 0 0 0 0 0 0 0 0 0 0 0 0 0 -156.0739 -72.8852 147.979 43.809 55.612 23.9446 44.4874 -15.6809 -6.4467 0 0 0 0 0 0 0 0 0 0 0 0 0 0 0 0 0 0 0 0 0 0 0 0 0 0 0 0 0 0 0 0 0 0 0 0 0 0 0 0 0 0 0 0 0 0 0 0 0 0 0 0 0 0 0 0 0 0 0 0 0 0 0 0 0 0 0 0 0 0 0 0 0 0 0 15.1549 0 0 31.0947 0 0 32.4404 0 0 180 0 180 0 0 0 -15.1549 0 0 3.2828 0 0 90.5622 0 0 0 0 0 0 0 0
0 0 0 0 0 0 26 98.5082 0 90 0 0 -4.1873 4.2388 -0.155 8.8953 -9.2914 -0.7243 -6.1987 10.999 -0.1727 6.941 -22.8245 -1.4027 -27.4719 19.2949 -4.7588 -4.3552 -6.6217 0.2521 0 0 0 0 0 0 0 0 0 0 0 0 65.5627 -84.0441 -60.2536 16.6645 -62.2636 -10.1106 -56.8236 -2.1714 1.1748 0 0 0 0 0 0 0 0 0 0 0 0 0 0 0 0 0 0 0 0 0 0 0 0 0 0 0 0 0 0 0 0 0 0 0 0 0 0 0 0 0 0 0 0 0 0 0 0 0 0 0 0 0 0 0 0 0 0 0 0 0 0 0 0 0 0 0 0 0 0 0 0 0 0 0 -160.127 -74.8158 154.1962 33.0755 59.4707 19.2525 48.4545 -12.9244 -5.8356 0 0 0 0 0 0 0 0 0 0 0 0 0 0 0 0 0 0 0 0 0 0 0 0 0 0 0 0 0 0 0 0 0 0 0 0 0 0 0 0 0 0 0 0 0 0 0 0 0 0 0 0 0 0 0 0 0 0 0 0 0 0 0 0 0 0 0 0 0 0 0 0 0 0 0 10.4869 0 0 32.8914 0 0 35.3117 0 0 180 0 180 0 0 0 -10.4869 0 0 1.486 0 0 87.691 0 0 0 0 0 0 0 0
